<svg xmlns="http://www.w3.org/2000/svg" viewBox="0 0 1674 2480"><path fill="#CD1F40" d="M770 0h9l1 206 12-10 5.673-3.822c3.856-3.096 5.018-5.156 5.568-10.075.046-2.315.038-4.63-.014-6.945l.034-3.846c.03-3.459-.002-6.915-.045-10.374-.035-3.622-.012-7.244.004-10.866.022-6.85-.007-13.698-.054-20.548-.052-7.802-.046-15.603-.036-23.405.02-16.04-.032-32.08-.13-48.119h9l1 122 12-10 5-4c.762-2.092.762-2.092.707-4.328l.088-2.422.018-2.5.076-2.547c.058-2.067.088-4.135.111-6.203h9v10l2.668-2.082 3.52-2.73 1.751-1.37 1.729-1.338 1.571-1.221c2.167-1.55 4.477-2.889 6.761-4.259l1 559 52-17c73.981-21.526 149.45-38.165 226.813-38.313l3.289-.01c11.632-.021 23.189.265 34.785 1.218l2.954.234 2.72.25 2.387.215C1186 651 1186 651 1189 653c-7.81 2.113-15.63 4.175-23.484 6.121-90.549 22.515-177.575 56.474-345.845 138.407-3.686 2.032-7.406 4-11.125 5.971-13.785 7.308-27.334 14.94-40.77 22.875a772.058 772.058 0 0 1-10.49 6.005C707.594 860.464 659.577 892.041 613 925l-2.015 1.424c-3.418 2.42-6.824 4.857-10.221 7.307a1836.497 1836.497 0 0 1-5.873 4.203c-11.042 7.901-21.854 16.082-32.63 24.34a857.436 857.436 0 0 1-8.448 6.351c-12.932 9.676-25.579 19.71-38.069 29.947-1.573 1.288-3.15 2.571-4.728 3.854a967.276 967.276 0 0 0-16.174 13.484 585.242 585.242 0 0 1-10.53 8.715c-4.39 3.57-8.59 7.304-12.769 11.117-2.68 2.38-5.438 4.635-8.23 6.883-3.785 3.062-7.278 6.22-10.66 9.715-1.697 1.704-3.458 3.277-5.278 4.848-4.665 4.029-9.185 8.209-13.7 12.404a1327.585 1327.585 0 0 1-6.825 6.295c-10.898 10.024-21.367 20.476-31.823 30.956a4689.68 4689.68 0 0 1-7.627 7.624c-1.993 1.988-3.983 3.98-5.972 5.97-1.385 1.387-2.772 2.77-4.159 4.155-4.439 4.455-8.736 8.97-12.834 13.74a141.327 141.327 0 0 1-5.083 5.563l-1.843 1.938-1.884 1.98c-5.082 5.376-9.909 10.826-14.52 16.613-2.277 2.784-4.668 5.428-7.105 8.074-4.893 5.33-9.474 10.857-14 16.5l-2.703 3.324c-8.385 10.345-16.383 20.968-24.297 31.676l-1.676 2.261C251.458 1280.204 213.977 1342.587 204 1410l-.308 2.019c-2.377 17.936-2.66 39.523 2.308 56.981l.684 2.463c9.192 32.164 29.036 56.597 58.066 73.225 5.766 3.194 11.691 5.97 17.75 8.562l2.151.925c5.136 2.116 10.369 3.807 15.671 5.445l2.242.696c1.812.563 3.624 1.124 5.436 1.684l-.012-2.034c-.233-39.858-.382-79.716-.423-119.574-.005-4.795-.01-9.59-.017-14.384l-.003-2.893a9200.626 9200.626 0 0 0-.198-46.254c-.1-15.842-.139-31.683-.121-47.526.008-9.762-.03-19.52-.13-29.282-.063-6.71-.067-13.42-.026-20.13.022-3.862.02-7.72-.055-11.582-.349-19.23 2.217-31.902 15.956-46.189 3.216-3.41 6.066-7.1 8.966-10.777a975.355 975.355 0 0 1 3.18-3.875 1459.21 1459.21 0 0 0 7.445-9.125 710.934 710.934 0 0 1 23.438-27.16c1.796-1.99 3.56-4 5.313-6.027 4.557-5.224 9.277-10.299 14-15.372 1.65-1.776 3.29-3.56 4.93-5.343 9.344-10.105 19.035-19.858 28.757-29.598l2.06-2.069c13.107-13.145 13.107-13.145 19.405-18.49 2.13-1.826 4.082-3.803 6.035-5.816a167.433 167.433 0 0 1 10.215-9.496c2.35-2.06 4.635-4.179 6.919-6.312a292.726 292.726 0 0 1 16.62-14.415c3.01-2.495 5.885-5.115 8.746-7.777 4.58-4.255 9.293-8.273 14.164-12.195 3.092-2.513 6.12-5.092 9.149-7.68 5.671-4.832 11.487-9.456 17.367-14.031 3.885-3.024 7.709-6.123 11.527-9.23C543 1006 543 1006 544 1006c.342 56.446.66 112.893.847 169.34l.008 2.532c.06 18.16.115 36.32.166 54.48a158401.019 158401.019 0 0 0 .086 29.404c.085 28.72.235 57.438.419 86.157.189 29.516.312 59.031.352 88.547l.02 12.51.004 2.487c.023 13.206.116 26.41.235 39.615.117 13.28.162 26.557.133 39.837-.015 7.89.025 15.773.146 23.66.084 5.896.063 11.788.002 17.683-.008 2.381.017 4.763.08 7.143.43 17.334.43 17.334-4.484 22.823-4.815 4.012-10.09 6.942-15.72 9.653-2.813 1.384-5.376 3.04-7.954 4.82-18.571 12.119-37.36 23.841-56.34 35.309l-2.582 1.563c-35.33 21.364-71.295 41.573-107.941 60.59-4.354 2.259-8.694 4.541-13.029 6.835-6.808 3.602-13.635 7.165-20.51 10.637l-2.041 1.04C311.236 1735 311.236 1735 309 1735v-157l-8 2c-1.403.27-2.81.52-4.224.73l-2.218.335-2.331.337-2.507.371c-10.228 1.5-20.47 2.89-30.72 4.227l-2.26.298c-20.513 2.68-40.952 3.002-61.615 3.077l-3.743.024c-55.554.275-116.881-9.285-158.132-49.711-25.169-25.395-33.564-57.456-33.497-92.445.066-11.631.823-22.84 3.247-34.243l.586-2.782C9.223 1384.298 18.738 1359.952 30 1336l1.285-2.74C48.32 1297.256 71.085 1263.74 95 1232l1.37-1.821c6.503-8.627 13.303-17.005 20.146-25.363 1.29-1.579 2.573-3.164 3.855-4.75 8.796-10.862 18.006-21.369 27.45-31.671a295.43 295.43 0 0 0 5.429-6.145 441.47 441.47 0 0 1 25.371-26.809c1.954-2.005 3.78-4.04 5.606-6.16 4.037-4.652 8.345-9 12.71-13.343l2.303-2.315a237.91 237.91 0 0 1 12.891-11.972c2.926-2.584 5.644-5.358 8.369-8.151a199.841 199.841 0 0 1 12.447-11.701c3.435-3.01 6.738-6.159 10.053-9.299 7.327-6.94 14.888-13.572 22.563-20.125 4.42-3.78 8.825-7.577 13.212-11.397 18.413-16.029 18.413-16.029 22.433-18.135 2.863-1.703 4.728-3.21 6.792-5.843 1.291-5.58 1.033-11.049.86-16.745-.02-1.713-.034-3.427-.045-5.141-.03-3.685-.089-7.367-.167-11.051-.122-5.835-.167-11.668-.2-17.504a4634.056 4634.056 0 0 0-.537-46.631 2347.533 2347.533 0 0 1-.32-30.64 664.047 664.047 0 0 0-.193-14.533c-.803-31.89-.803-31.89 5.264-39.083 3.751-3.453 7.656-5.698 12.338-7.672l-1-1a114.8 114.8 0 0 1-.114-5.805v-3.761l.016-4.094.005-4.166c.003-3.661.013-7.322.024-10.984.01-3.733.015-7.466.02-11.2.01-7.33.028-14.66.049-21.99h10v56c11.03-6.84 11.03-6.84 22.63-19.632l.01-3.05.046-3.51-.027-3.838a1114.048 1114.048 0 0 0 .05-15.04c-.003-3.829.022-7.658.044-11.487.037-7.25.05-14.499.052-21.748.005-8.254.038-16.508.073-24.762.072-16.978.109-33.955.122-50.933h10l1 127 13-10 4.75-2.48c2.901-2.207 3.237-3.452 3.953-7.102.435-4.905.353-9.805.297-14.724.008-1.893.019-3.785.033-5.678.03-5.132.009-10.263-.02-15.395-.022-5.365.001-10.73.02-16.095.028-10.158.016-20.314-.011-30.472-.03-11.564-.013-23.129.007-34.693.041-23.787.025-47.574-.029-71.361h9l1 183 14-11 4.813-3.06c2.173-1.63 3.038-2.484 3.886-5.08.328-2.671.357-5.214.301-7.904l.033-3.018c.027-3.28-.003-6.557-.033-9.836.008-2.279.019-4.557.033-6.835.028-5.988.01-11.975-.02-17.962-.022-6.114.002-12.227.022-18.34.033-11.989.015-23.977-.035-35.965h9l1 93 15-12 7-5c1.012-2.07 1.012-2.07.877-4.27l.053-2.5-.05-2.715.03-2.908c.026-3.22 0-6.436-.024-9.655.008-2.306.02-4.612.033-6.918.029-6.265.015-12.528-.007-18.792-.016-6.545.008-13.09.028-19.635.028-10.987.03-21.973.015-32.96-.015-11.315-.016-22.63.002-33.946l.004-2.114.018-10.5c.052-29.029.052-58.058.021-87.087h9l1 225 16-13 6-4c.896-2.884.896-2.884.76-6.176l.05-3.84-.037-4.208c.008-1.478.019-2.956.032-4.435.029-4.012.02-8.024.005-12.036-.01-4.193.015-8.387.036-12.58.035-7.94.038-15.88.031-23.82-.006-9.04.021-18.08.052-27.12.061-18.595.08-37.19.071-55.785h9l1 141 16-13h2v-39h9l1 30c4.85-3.944 4.85-3.944 9.693-7.898l1.83-1.477 1.873-1.523C542 657 542 657 544 657l1 195 26-15c38.846-21.923 38.846-21.923 51-28l-.007-3.06c-.107-44.505-.2-89.01-.215-133.516v-2.042c-.006-14.645-.009-29.291-.009-43.937a172018.474 172018.474 0 0 0-.001-23.712c-.003-23.163-.044-46.325-.106-69.488-.064-23.804-.088-47.608-.062-71.412l.01-10.089.001-2.006c.009-11.307-.032-22.614-.083-33.922-.042-10.052-.04-20.104-.004-30.156.02-5.803.02-11.603-.032-17.405-.047-5.314-.039-10.624.013-15.938.01-1.92-.002-3.841-.036-5.762-.246-15.082-.246-15.082 4.196-19.898 2.87-2.612 5.998-4.676 9.335-6.657 3.155-1.595 3.155-1.595 3.399-3.949l.033-2.409.06-2.73.02-2.951.054-3.018c.054-3.19.088-6.379.121-9.568.034-2.159.068-4.318.104-6.477.085-5.299.152-10.598.209-15.898h9l1 36 14-11 4.813-2.974c2.307-1.733 3.066-2.614 3.886-5.406.33-3.045.356-5.978.301-9.041l.033-3.461c.027-3.767-.003-7.531-.033-11.298.008-2.614.019-5.229.033-7.843.028-6.174.016-12.346-.011-18.519-.03-7.03-.013-14.06.007-21.09.04-14.457.023-28.912-.029-43.368h9l1 108c10.077-7.905 10.077-7.905 20-16h2V94h10l1 163 15-12c5-4 5-4 7-4v-83h10l1 73 16-13c4-3 4-3 6-3V0Z"/><path fill="#CD1E40" d="m858 804 1 144 40-8c6.835-1.179 13.64-2.335 20.5-3.313l2.43-.356c16.307-2.386 32.638-4.089 49.07-5.331l2.64-.214c63.554-5.038 138.198.05 188.813 42.952 25.51 22.654 38.038 52.21 40.434 85.942.94 27.543-4.187 54.262-12.887 80.32l-.87 2.614c-19.041 56.382-52.657 107.765-89.13 154.386l-2.676 3.453a567.471 567.471 0 0 1-16.703 20.457c-2.444 2.866-4.818 5.784-7.184 8.715-3.875 4.763-7.95 9.309-12.105 13.828a311.316 311.316 0 0 0-5.77 6.485c-4.17 4.796-8.482 9.463-12.793 14.134a857.814 857.814 0 0 0-4.063 4.464c-6.77 7.453-13.748 14.654-20.874 21.765a7568.932 7568.932 0 0 1-10.44 10.437c-2.991 2.986-5.979 5.977-8.965 8.969-2.326 2.33-4.654 4.656-6.983 6.983a3419.692 3419.692 0 0 0-3.304 3.306c-5.874 5.884-11.82 11.597-18.14 17.004a338.09 338.09 0 0 0-4.219 3.938l-2.136 2.023L961.5 1445c-5.395 5.13-10.858 10.144-16.5 15l-1.698 1.462c-1.62 1.39-3.241 2.777-4.865 4.163-4.383 3.75-8.754 7.512-13.109 11.295-10.114 8.787-20.234 17.517-30.814 25.742-4.764 3.715-9.427 7.544-14.077 11.4-7.024 5.819-14.172 11.423-21.437 16.938a9598.829 9598.829 0 0 0-6.063 4.688c-14.052 10.821-28.299 21.373-42.71 31.71-2.268 1.632-4.53 3.272-6.79 4.915l-2.315 1.68a2462.436 2462.436 0 0 0-4.232 3.08c-13.62 9.872-27.65 19.186-41.59 28.598a5139.055 5139.055 0 0 0-5.6 3.789c-11.433 7.745-22.943 15.297-34.7 22.54-1.604 1.01-3.206 2.022-4.805 3.04A1957.045 1957.045 0 0 1 641 1677l-1.8 1.043a1544.328 1544.328 0 0 1-48.513 26.97 697.158 697.158 0 0 0-8.341 4.558c-14.715 8.13-29.658 15.765-44.7 23.265-1.989.991-3.977 1.985-5.965 2.978-18.573 9.274-37.214 18.32-56.229 26.66a775.35 775.35 0 0 0-10.32 4.667C404.18 1795.06 340.516 1818.74 276 1837l-2.304.654C191.917 1860.794 105.262 1877.672 13 1868l1-2c2.98-.874 5.924-1.627 8.945-2.328l5.818-1.401 3.135-.748C113.459 1841.98 192.75 1812.792 269 1778l3.248-1.478c14.05-6.406 28.006-12.999 41.912-19.713 4.442-2.143 8.9-4.249 13.37-6.336 8.488-3.973 16.801-8.209 25.072-12.618 4.06-2.159 8.141-4.27 12.234-6.367 13.438-6.883 26.724-13.937 39.828-21.445 5.054-2.896 10.157-5.696 15.274-8.48 27.127-14.834 53.585-30.97 79.729-47.463 2.513-1.584 5.03-3.162 7.549-4.737 11.16-6.995 22.171-14.193 33.118-21.517 2.663-1.781 5.328-3.56 7.994-5.336 17.387-11.603 34.653-23.373 51.672-35.51l2.15-1.53c10.76-7.664 21.313-15.576 31.8-23.61 4.47-3.425 8.972-6.806 13.487-10.172 6.705-5.009 13.3-10.146 19.858-15.342a937.392 937.392 0 0 1 5.092-3.987c12.262-9.553 24.242-19.449 36.078-29.525a526.26 526.26 0 0 1 10.16-8.397c4.699-3.82 9.157-7.854 13.61-11.957 2.77-2.485 5.616-4.834 8.515-7.168 3.766-3.039 7.235-6.178 10.598-9.652 1.696-1.704 3.457-3.277 5.277-4.848 5.927-5.122 11.64-10.477 17.375-15.812l1.848-1.716c10.982-10.212 21.695-20.67 32.285-31.287 2.521-2.526 5.047-5.047 7.574-7.567l4.895-4.899 2.247-2.241c4.02-4.039 7.874-8.163 11.573-12.498 1.624-1.844 3.324-3.572 5.078-5.292 3.014-2.967 5.8-6.073 8.559-9.277 2.229-2.553 4.521-5.042 6.816-7.535 4.05-4.44 7.88-9.007 11.652-13.684 2.882-3.5 5.86-6.907 8.848-10.316 5.61-6.429 10.94-13.027 16.149-19.782a946.887 946.887 0 0 1 4.816-6.152c22.835-29.041 43.869-59.78 61.368-92.35.898-1.67 1.801-3.338 2.709-5.003 27.513-50.546 50.744-113.219 33.99-170.901-10.228-33.407-32.195-56.302-62.532-72.645-21.455-11.191-44.921-16.608-68.587-20.897l-3.001-.544L858 950l.01 2.4c.202 46.93.356 93.86.45 140.79a149969.532 149969.532 0 0 0 .042 20.305c.039 18.164.11 36.328.192 54.492.085 18.639.135 37.277.153 55.916.012 11.5.051 23.001.124 34.502.048 7.887.062 15.773.05 23.66-.005 4.55.004 9.1.052 13.65.044 4.17.046 8.337.015 12.507-.004 1.504.008 3.01.036 4.514.134 7.54-.18 13.054-5.438 18.915A627.852 627.852 0 0 1 849 1336a182.337 182.337 0 0 0-4.063 5.063c-4.735 5.862-9.887 11.3-15.09 16.748-3.23 3.386-6.403 6.794-9.464 10.334-3.433 3.96-7.09 7.624-10.844 11.277a135.63 135.63 0 0 0-7.793 8.324c-4.33 5.003-8.996 9.65-13.683 14.316l-2.592 2.604c-4.427 4.42-8.924 8.674-13.669 12.75-2.732 2.401-5.264 4.98-7.802 7.584-3.771 3.818-7.587 7.481-11.676 10.96-3.347 2.937-6.578 5.993-9.824 9.04-5.087 4.765-10.196 9.476-15.5 14l-3.063 2.625c-1.77 1.517-3.539 3.034-5.31 4.55a2353.478 2353.478 0 0 0-13.19 11.388c-9.094 7.892-18.216 15.74-27.656 23.218a937.682 937.682 0 0 0-8.518 6.899c-6.509 5.315-13.066 10.54-19.755 15.629a561.682 561.682 0 0 0-8.14 6.351l-2.44 1.924c-1.587 1.253-3.17 2.51-4.75 3.771l-2.21 1.739-1.954 1.552c-2.244 1.508-4.498 2.384-7.014 3.354-.342-56.623-.66-113.246-.847-169.87l-.008-2.54c-.06-18.218-.115-36.437-.166-54.656l-.078-26.804-.008-2.694c-.085-28.81-.235-57.618-.419-86.428-.189-29.609-.312-59.218-.352-88.828l-.02-12.551-.004-2.495c-.023-13.247-.116-26.491-.235-39.737a3617.435 3617.435 0 0 1-.133-39.965 1380.9 1380.9 0 0 0-.146-23.733c-.084-5.915-.063-11.827-.002-17.742.008-2.388-.017-4.776-.08-7.164-.43-17.338-.43-17.338 4.442-23.088 4.738-4.214 9.975-7.363 15.554-10.334 3.765-2.063 7.241-4.502 10.76-6.953a940.878 940.878 0 0 1 3.912-2.607l1.955-1.297 2-1.327 4.273-2.84c4.197-2.787 8.399-5.568 12.602-8.347l1.86-1.23C717.948 882.264 759.08 857.495 801 834l3.231-1.817c13.549-7.614 27.161-15.053 40.99-22.148l2.966-1.523 2.606-1.33C856.733 804 856.733 804 858 804Z"/><path fill="#424141" d="M858 804c.154 49.625.297 99.25.381 148.874l.004 2.226c.027 15.963.052 31.926.075 47.888.01 7.829.022 15.657.034 23.485l.004 2.36c.038 25.249.106 50.497.189 75.745a30303.726 30303.726 0 0 1 .167 88.834l.002 2.186c.01 11.61.052 23.22.105 34.83.053 11.672.073 23.345.06 35.018-.005 6.324.004 12.648.052 18.972.044 5.79.046 11.58.015 17.37-.004 2.094.008 4.189.036 6.283.223 17.595.223 17.595-5.438 23.926A277.37 277.37 0 0 1 849 1336a147.715 147.715 0 0 0-4.063 5.063c-4.735 5.862-9.887 11.3-15.09 16.748-3.23 3.386-6.403 6.794-9.464 10.334-3.433 3.96-7.09 7.624-10.844 11.277a135.63 135.63 0 0 0-7.793 8.324c-4.33 5.003-8.996 9.65-13.683 14.316l-2.592 2.604c-4.427 4.42-8.924 8.674-13.669 12.75-2.732 2.401-5.264 4.98-7.802 7.584-3.771 3.818-7.587 7.481-11.676 10.96-3.347 2.937-6.578 5.993-9.824 9.04-5.087 4.765-10.196 9.476-15.5 14l-3.063 2.625c-1.77 1.517-3.539 3.034-5.31 4.55a2353.478 2353.478 0 0 0-13.19 11.388c-9.094 7.892-18.216 15.74-27.656 23.218a937.682 937.682 0 0 0-8.518 6.899c-6.509 5.315-13.066 10.54-19.755 15.629a561.682 561.682 0 0 0-8.14 6.351l-2.44 1.924c-1.587 1.253-3.17 2.51-4.75 3.771l-2.21 1.739-1.954 1.552c-2.244 1.508-4.498 2.384-7.014 3.354-.342-56.623-.66-113.246-.847-169.87l-.008-2.54c-.06-18.218-.115-36.437-.166-54.656l-.078-26.804-.008-2.694c-.085-28.81-.235-57.618-.419-86.428-.189-29.609-.312-59.218-.352-88.828l-.02-12.551c0-.824-.002-1.647-.004-2.495-.023-13.247-.116-26.491-.235-39.737a3617.435 3617.435 0 0 1-.133-39.965 1380.9 1380.9 0 0 0-.146-23.733c-.084-5.915-.063-11.827-.002-17.742.008-2.388-.017-4.776-.08-7.164-.43-17.338-.43-17.338 4.442-23.088 4.738-4.214 9.975-7.363 15.554-10.334 3.765-2.063 7.241-4.502 10.76-6.953a940.878 940.878 0 0 1 3.912-2.607l1.955-1.297 2-1.327 4.273-2.84c4.197-2.787 8.399-5.568 12.602-8.347l1.86-1.23C717.948 882.264 759.08 857.495 801 834l3.231-1.817c13.549-7.614 27.161-15.053 40.99-22.148l2.966-1.523 2.606-1.33C856.733 804 856.733 804 858 804ZM544 1006c.342 56.446.66 112.893.847 169.34l.008 2.532c.06 18.16.115 36.32.166 54.48l.078 26.718.008 2.686c.085 28.72.235 57.438.419 86.157.189 29.516.312 59.031.352 88.547l.02 12.51c0 .821.002 1.642.004 2.487.023 13.206.116 26.41.235 39.615.117 13.28.162 26.557.133 39.837-.015 7.89.025 15.773.146 23.66.084 5.896.063 11.788.002 17.683-.008 2.381.017 4.763.08 7.143.43 17.334.43 17.334-4.484 22.823-4.815 4.012-10.09 6.942-15.72 9.653-2.813 1.384-5.376 3.04-7.954 4.82-18.571 12.119-37.36 23.841-56.34 35.309l-2.582 1.563c-35.33 21.364-71.295 41.573-107.941 60.59-4.354 2.259-8.694 4.541-13.029 6.835-6.808 3.602-13.635 7.165-20.51 10.637l-2.041 1.04C311.236 1735 311.236 1735 309 1735c-.274-46.8-.529-93.6-.677-140.4l-.007-2.102c-.048-15.074-.092-30.149-.133-45.224-.02-7.393-.04-14.787-.062-22.18l-.006-2.23c-.068-23.813-.188-47.626-.336-71.439-.151-24.487-.25-48.973-.282-73.46l-.015-10.395-.003-2.066a4710.432 4710.432 0 0 0-.188-32.825 3123.043 3123.043 0 0 1-.107-33.063c.01-5.965-.005-11.926-.091-17.89-.588-42.744-.588-42.744 11.698-55.937a141.402 141.402 0 0 1 4.178-3.893c3.397-3.172 6.129-6.856 8.969-10.521a703.417 703.417 0 0 1 3.18-3.875 1459.21 1459.21 0 0 0 7.445-9.125 710.934 710.934 0 0 1 23.437-27.16c1.796-1.99 3.56-4 5.313-6.027 4.557-5.224 9.277-10.299 14-15.372 1.65-1.776 3.29-3.56 4.93-5.343 9.344-10.105 19.035-19.858 28.757-29.598l2.06-2.069c13.107-13.145 13.107-13.145 19.405-18.49 2.13-1.826 4.082-3.803 6.035-5.816a167.433 167.433 0 0 1 10.215-9.496c2.35-2.06 4.635-4.179 6.919-6.312a292.726 292.726 0 0 1 16.62-14.415c3.01-2.495 5.885-5.115 8.746-7.777 4.58-4.255 9.293-8.273 14.164-12.195 3.092-2.513 6.12-5.092 9.149-7.68 5.671-4.832 11.487-9.456 17.367-14.031 3.885-3.024 7.709-6.123 11.527-9.23C543 1006 543 1006 544 1006ZM770 0h9l1 206 12-10 5.673-3.822c3.856-3.096 5.018-5.156 5.568-10.075.046-2.315.038-4.63-.014-6.945l.034-3.846c.03-3.459-.002-6.915-.045-10.374-.035-3.622-.012-7.244.004-10.866.022-6.85-.007-13.698-.054-20.548-.052-7.802-.046-15.603-.036-23.405.02-16.04-.032-32.08-.13-48.119h9l1 122 12-10 5-4c.762-2.092.762-2.092.707-4.328l.088-2.422.018-2.5.076-2.547c.058-2.067.088-4.135.111-6.203h9v10l2.668-2.082 3.52-2.73 1.751-1.37 1.729-1.338 1.571-1.221c2.167-1.55 4.477-2.889 6.761-4.259v560c-10.086 4.483-10.086 4.483-15.035 6.234l-3.388 1.214-3.64 1.302C793.472 729.108 751.963 747.029 711 766l-2.136.989c-41.7 18.825-41.7 18.825-81.743 40.78C625 809 625 809 623 809c-.205-45.525-.396-91.05-.508-136.576l-.005-2.042c-.036-14.645-.07-29.291-.1-43.937l-.046-21.547-.005-2.165c-.051-23.163-.141-46.325-.252-69.488a19126.21 19126.21 0 0 1-.211-71.412l-.012-10.089-.002-2.006a6386.261 6386.261 0 0 0-.154-33.922 3838.476 3838.476 0 0 1-.067-30.156c.008-5.803-.004-11.603-.068-17.405a851.451 851.451 0 0 1-.02-15.938c.004-1.92-.01-3.841-.049-5.762-.278-15.082-.278-15.082 4.162-19.898 2.87-2.613 6-4.677 9.337-6.657 3.155-1.595 3.155-1.595 3.399-3.949l.033-2.409.06-2.73.02-2.951.054-3.018c.054-3.19.088-6.379.121-9.568.034-2.159.068-4.318.104-6.477.085-5.299.152-10.598.209-15.898h9l1 36 14-11 4.813-2.974c2.307-1.733 3.066-2.614 3.886-5.406.33-3.045.356-5.978.301-9.041l.033-3.461c.027-3.767-.003-7.531-.033-11.298.008-2.614.019-5.229.033-7.843.028-6.174.016-12.346-.011-18.519-.03-7.03-.013-14.06.007-21.09.04-14.457.023-28.912-.029-43.368h9l1 108c10.077-7.905 10.077-7.905 20-16h2V94h10l1 163 15-12c5-4 5-4 7-4v-83h10l1 73 16-13c4-3 4-3 6-3V0Z"/><path fill="#CD1E40" d="M1053 1930c174.493 0 174.493 0 189.563 4.188l2.373.647c24.313 6.931 44.445 21.091 57.21 43.145 12.973 23.442 16.668 50.133 9.231 76.087-5.147 16.89-14.193 32.075-27.377 43.933 2.772 2.874 5.656 5.372 8.813 7.813 21.507 17.18 32.702 40.243 35.874 67.437 2.407 28.882-4.952 54.097-22.687 76.75l-2.313 3.125c-20.072 21.472-48.651 29.67-76.687 33.875h-174v-357Zm92 79v56l27.438.188 8.61.082c2.275.009 4.549.017 6.823.023l3.525.046c9.929.004 17.567-1.401 24.877-8.405 5.96-6.675 7.002-14.128 6.727-22.934-1.311-7.836-4.412-14.054-10.563-19.188-8.414-5.824-17.953-6.248-27.886-6.105l-3.064.01c-3.725.015-7.45.057-11.175.095L1145 2009Zm0 132v63c11.309.117 11.309.117 22.617.195 4.62.024 9.239.052 13.858.107 3.728.044 7.456.067 11.184.078 1.416.007 2.83.021 4.246.043 10.84.16 20.347-.922 28.56-8.591 4.546-5.425 7.15-11.777 7.535-18.832l.152-2.008c.371-8.283-.95-16.908-6.34-23.43-7.644-7.724-15.613-10.627-26.412-10.79-2.581.001-5.162.012-7.744.033l-3.669.006c-4.496.01-8.991.038-13.487.064l-30.5.125ZM1376 1930h96v130h105v-130h97v357h-97v-134h-105v134h-96v-357ZM330 1930h96v130h105v-130h97v357h-97v-134H426v134h-96v-357ZM692 1930h97l.148 46.688c.036 9.77.072 19.541.11 29.312.06 15.503.119 31.005.164 46.508.033 11.292.073 22.584.12 33.875.026 5.975.048 11.949.061 17.923.013 5.634.035 11.268.064 16.902.01 2.057.015 4.114.017 6.172.027 22.122.88 42.97 16.441 60.307 9.337 8.883 21.7 11.715 34.188 11.626l2.509-.018c12.783-.251 23.181-3.773 32.865-12.295 13.732-14.737 13.76-34.425 13.745-53.222l.031-6.685c.028-6.016.037-12.031.043-18.047.01-6.3.036-12.599.06-18.898.039-10.562.067-21.124.088-31.686.02-10.873.048-21.746.084-32.618l.006-2.036.034-10.11c.092-27.899.162-55.798.222-83.698h97a82511.193 82511.193 0 0 1 .167 105.837c.013 11.746.037 23.493.064 35.24.029 12.074.045 24.148.051 36.222.004 6.773.013 13.546.035 20.32.02 6.387.027 12.775.022 19.164.001 2.331.007 4.663.019 6.995.183 38.804-9.844 72.263-37.358 100.66-17.75 17.742-41.377 28.417-65.5 34.312l-2.44.602c-13.65 3.153-27.288 4.03-41.247 3.96l-2.307-.005c-41.888-.168-81.955-12.875-112.318-42.557-29.83-30.201-34.372-69.178-34.302-109.82v-6.922c0-6.226.006-12.453.013-18.679.006-6.52.006-13.042.008-19.563.002-10.932.009-21.865.018-32.798.009-11.254.016-22.508.02-33.761v-2.107l.005-10.466c.01-28.878.028-57.756.05-86.634ZM241.555 1959.277c19.619 18.77 31.523 44.872 34.445 71.723v10h-93l-4-12c-6.188-9.845-13.859-14.857-25-18-2.821-.555-5.171-.883-8-1l-3.043-.156c-12.647-.343-26.964.535-36.957 9.156-4.482 4.753-5.84 9.811-6.125 16.258.274 6 1.685 10.797 6.125 14.992 15.908 11.866 38.343 13.907 57.375 17.188 34.861 6.036 70.184 15.455 95.625 41.562l2.227 2.2c8.208 8.573 13.378 18.793 17.148 29.925l.723 2.13c9.075 28.588 5.48 62.27-8.098 88.745-4.527 8.266-10.517 15.217-17 22l-1.82 2.047c-19.996 21.64-52.006 31.042-80.18 34.953l-2.207.313c-8.8 1.061-17.693.93-26.543.937l-2.635.002c-13.413-.016-26.441-.523-39.615-3.252l-2.527-.504C73.9 2283.447 52.495 2272.89 34 2256l-2.457-2.172C12.532 2236.116 2.783 2209.302 0 2184v-14h94l5 16c5.454 10.165 12.608 14.476 23.324 18.238 15.284 4.351 35.123 3.564 49.375-3.593 5.698-3.513 11.143-8.17 13.301-14.645.906-7.531.374-13.434-4.004-19.754-13.854-15.59-40.908-17.526-59.996-21.246-36.989-7.246-78.621-17.951-102.254-50.063-15.72-24.34-18.848-53.827-13.355-81.936 5.936-27.167 22.413-50.574 45.638-65.778 5.751-3.568 11.798-6.47 17.971-9.223l3.64-1.648c14.056-5.994 29.196-9.6 44.36-11.352l2.719-.336c44.24-4.598 88.214 4.641 121.836 34.613Z"/><path fill="#434141" d="M456 492h9l1 225 16-13 6-4c.896-2.884.896-2.884.76-6.176l.05-3.84-.037-4.208c.008-1.478.019-2.956.032-4.435.029-4.012.02-8.024.005-12.036-.01-4.193.015-8.387.036-12.58.035-7.94.038-15.88.031-23.82-.006-9.04.021-18.08.052-27.12.061-18.595.08-37.19.071-55.785h9l1 141 16-13h2v-39h9l1 30c4.85-3.944 4.85-3.944 9.693-7.898l1.83-1.477 1.873-1.523C542 657 542 657 544 657c.374 25.512.656 51.024.829 76.539.082 11.847.195 23.693.378 35.54.16 10.326.263 20.652.298 30.98.021 5.469.07 10.933.187 16.4.109 5.151.142 10.297.118 15.449.004 1.886.036 3.772.097 5.657.43 13.841.43 13.841-3.45 18.148-3.802 3.098-7.974 5.274-12.415 7.312-3.198 1.527-6.13 3.402-9.132 5.284l-5.112 3.082c-10.41 6.277-20.727 12.668-30.881 19.353a760.972 760.972 0 0 1-5.878 3.807c-44.19 28.388-87.055 58.741-128.739 90.688-1.98 1.517-3.965 3.029-5.952 4.538-6.655 5.076-13.172 10.299-19.656 15.59C310.43 1017 310.43 1017 309 1017a7682.769 7682.769 0 0 1-.829-68.17 3304.398 3304.398 0 0 0-.378-31.654c-.16-9.201-.263-18.4-.298-27.603-.021-4.87-.07-9.736-.187-14.604-.742-32.07-.742-32.07 5.36-39.313 3.75-3.453 7.649-5.69 12.332-7.656l-1-1a114.8 114.8 0 0 1-.114-5.805v-3.761l.016-4.094.005-4.166c.003-3.661.013-7.322.024-10.984.01-3.733.015-7.466.02-11.2.01-7.33.028-14.66.049-21.99h10v56c11.03-6.84 11.03-6.84 22.63-19.632l.01-3.05.046-3.51c-.01-1.267-.018-2.533-.027-3.838a1114.048 1114.048 0 0 0 .05-15.04c-.003-3.829.022-7.658.044-11.487.037-7.25.05-14.499.052-21.748.005-8.254.038-16.508.073-24.762.072-16.978.109-33.955.122-50.933h10l1 127 13-10 4.75-2.48c2.901-2.207 3.237-3.452 3.953-7.102.435-4.905.353-9.805.297-14.724.008-1.893.019-3.785.033-5.678.03-5.132.009-10.263-.02-15.395-.022-5.365.001-10.73.02-16.095.028-10.158.016-20.314-.011-30.472-.03-11.564-.013-23.129.007-34.693.041-23.787.025-47.574-.029-71.361h9l1 183 14-11 4.813-3.06c2.173-1.63 3.038-2.484 3.886-5.08.328-2.671.357-5.214.301-7.904l.033-3.018c.027-3.28-.003-6.557-.033-9.836.008-2.279.019-4.557.033-6.835.028-5.988.01-11.975-.02-17.962-.022-6.114.002-12.227.022-18.34.033-11.989.015-23.977-.035-35.965h9l1 93 15-12 7-5c1.012-2.07 1.012-2.07.877-4.27l.053-2.5-.05-2.715.03-2.908c.026-3.22 0-6.436-.024-9.655.008-2.306.02-4.612.033-6.918.029-6.265.015-12.528-.007-18.792-.016-6.545.008-13.09.028-19.635.028-10.987.03-21.973.015-32.96-.015-11.315-.016-22.63.002-33.946l.004-2.114.018-10.5c.052-29.029.052-58.058.021-87.087Z"/><path fill="#424141" d="M1508.016 2373.398c11.483 8.95 18.515 23.47 20.39 37.68 1.91 19.35-2.935 34.702-14.707 49.89-6.415 7.609-16.243 13.194-25.699 16.032l-3.59 1.078c-5.193 1.265-10.338 1.265-15.66 1.235l-3.097-.018c-17.195-.276-30.525-6.014-42.653-18.295l-1.707-1.64c-10.23-10.689-13.692-24.904-13.605-39.235.005-.973.01-1.946.017-2.949.115-6.795.618-12.859 3.295-19.176l1.219-2.965c3.42-7.534 7.912-13.249 13.781-19.035l1.71-1.742c21.83-20.552 57.474-16.7 80.306-.86ZM1444 2395c-7.157 7.722-10.365 16.298-10.145 26.871.647 9.524 4.363 17.904 11.395 24.504 7.521 5.81 16.353 7.91 25.75 7.625 9.947-1.298 18.088-4.987 24.375-12.938 6.184-8.992 7.872-18.714 6-29.437-2.073-8.392-7.044-15.975-14.375-20.625-13.956-7.548-30.902-6.658-43 4ZM262.016 2373.398c11.483 8.95 18.515 23.47 20.39 37.68 1.91 19.35-2.935 34.702-14.707 49.89-6.415 7.609-16.243 13.194-25.699 16.032l-3.59 1.078c-5.193 1.265-10.338 1.265-15.66 1.235l-3.097-.018c-17.195-.276-30.525-6.014-42.653-18.295l-1.707-1.64c-10.23-10.689-13.692-24.904-13.606-39.235l.018-2.949c.115-6.795.618-12.859 3.295-19.176l1.219-2.965c3.42-7.534 7.912-13.249 13.781-19.035l1.71-1.742c21.83-20.552 57.474-16.7 80.306-.86ZM198 2395c-7.157 7.722-10.365 16.298-10.145 26.871.647 9.524 4.363 17.904 11.395 24.504 7.521 5.81 16.353 7.91 25.75 7.625 9.947-1.298 18.088-4.987 24.375-12.938 6.184-8.992 7.872-18.714 6-29.437-2.073-8.392-7.044-15.975-14.375-20.625-13.956-7.548-30.902-6.658-43 4ZM1580 2362h20c7.101 8.145 7.101 8.145 9.14 12.008 2.915 5.231 6.371 9.914 9.985 14.68 1.189 1.6 2.375 3.203 3.559 4.808l1.71 2.316a761.705 761.705 0 0 1 6.793 9.438c5.204 7.298 10.512 14.522 15.813 21.75v-65h26v116c-20 0-20 0-24.488-3.453-1.485-2.285-1.485-2.285-2.824-4.797a1909.898 1909.898 0 0 0-3.333-5.266l-1.654-2.755c-2.78-4.46-5.998-8.568-9.201-12.729a2109.436 2109.436 0 0 1-3.738-4.977l-1.87-2.493c-3.208-4.29-6.397-8.595-9.58-12.905l-1.746-2.36-1.64-2.226-1.425-1.931c-1.894-2.66-3.69-5.39-5.501-8.108v64h-26v-116ZM333 2362h20c7.101 8.145 7.101 8.145 9.14 12.008 2.915 5.231 6.371 9.914 9.985 14.68 1.189 1.6 2.375 3.203 3.559 4.808l1.71 2.316a761.705 761.705 0 0 1 6.793 9.438c5.204 7.298 10.512 14.522 15.813 21.75v-65h26v116c-20 0-20 0-24.488-3.453-1.485-2.285-1.485-2.285-2.825-4.797a1909.898 1909.898 0 0 0-3.332-5.266l-1.654-2.755c-2.78-4.46-5.998-8.568-9.201-12.729a2109.436 2109.436 0 0 1-3.738-4.977l-1.87-2.493c-3.208-4.29-6.397-8.595-9.58-12.905l-1.746-2.36-1.64-2.226-1.425-1.931c-1.894-2.66-3.69-5.39-5.501-8.108v64h-26v-116ZM741 2362c62.123 0 62.123 0 74.2 11.004 8.327 8.605 10.455 17.619 10.34 29.29-.435 10.317-4.21 18.342-11.349 25.792-4.108 3.588-8.61 6.914-14.191 6.914 4.836 6.818 9.867 13.466 15 20.063l1.833 2.359c2.577 3.305 5.16 6.599 7.847 9.816l2.195 2.637 1.867 2.18C830 2474 830 2474 830 2478c-24.777 3.303-24.777 3.303-32.75-1.739-4.819-4.726-8.134-10.425-11.457-16.257-3.012-5.047-6.642-9.61-10.23-14.254-1.252-1.67-2.5-3.342-3.747-5.016-1.796-2.464-1.796-2.464-3.816-4.734l-1 42h-26v-116Zm26 24v30l10.563.25 3.287.11c6.296.072 10.052-.584 15.15-4.36 3.402-4.718 3.727-9.375 3-15-1.766-5.2-4.202-7.409-9-10-4.706-1.34-9.464-1.112-14.313-1.063L767 2386ZM1110.113 2369.89c12.427 9.081 19.902 20.295 23.887 35.11v2c-4.374.291-8.745.468-13.125.625l-3.75.254c-3.625.097-6.62.066-10.125-.879-2.275-2.363-3.484-4.503-4.797-7.499-2.512-5.222-7.786-8.063-12.953-10.314-9.26-3.056-18.965-3.105-27.816 1.004-8.423 4.607-13.273 10.825-16.434 19.809-2.304 9.843-1.247 19.357 3.625 28.188 4.418 6.922 10.546 11.333 18.375 13.812 10.258 1.926 19.843.807 28.875-4.625 5.335-3.87 9.046-9.137 11.125-15.375h27c-4.406 17.626-11.128 30.088-26.813 39.938-14.964 7.95-32.179 9.52-48.75 6-15.735-4.868-27.619-14.552-35.437-28.938-7.526-14.391-8.903-33.744-4.098-49.277 6.983-17.32 17.705-28.262 34.637-35.899 18.633-6.24 39.902-4.35 56.574 6.067ZM94.113 2369.89c12.427 9.081 19.902 20.295 23.887 35.11v2c-4.374.291-8.745.468-13.125.625l-3.75.254c-3.625.097-6.62.066-10.125-.879-2.275-2.363-3.484-4.503-4.797-7.499-2.512-5.222-7.786-8.063-12.953-10.314-9.26-3.056-18.965-3.105-27.816 1.004C37.01 2394.798 32.16 2401.016 29 2410c-2.304 9.843-1.247 19.357 3.625 28.188C37.043 2445.11 43.171 2449.52 51 2452c10.258 1.926 19.843.807 28.875-4.625 5.335-3.87 9.046-9.137 11.125-15.375h27c-4.406 17.626-11.128 30.088-26.813 39.938-14.964 7.95-32.179 9.52-48.75 6C26.703 2473.07 14.819 2463.385 7 2449c-7.526-14.391-8.903-33.744-4.098-49.277 6.983-17.32 17.705-28.262 34.637-35.899 18.633-6.24 39.902-4.35 56.574 6.067ZM549.313 2368.125c7.43 5.59 13.036 13.613 14.687 22.875v7h-25l-4-8c-4.262-4.055-8.485-4.772-14.176-5.105-4.941.184-9.684 1.3-13.52 4.535-2.023 2.436-2.18 4.447-2.304 7.57 1.339 2.837 2.319 4.59 5.031 6.223 6.072 2.065 12.127 3.472 18.406 4.715 13.76 2.739 26.146 7.279 34.563 19.062 2.791 5.44 3.518 9.793 3.438 15.875l-.023 2.414c-.169 6-1.044 10.644-4.415 15.711l-1.25 2.098c-5.499 8.357-14.38 12.551-23.797 15.207-14.722 3.033-30.979 1.83-43.89-6.117-9.077-6.633-13.915-15.268-16.063-26.188v-5h26l3 8c3.612 3.922 7.772 5.45 13 6 6.453 0 12.53-.257 18-4 2.5-3.75 2.536-5.559 2-10-5.36-7.37-14.855-8.536-23.25-10.375-13.807-3.203-25.329-6.858-34.258-18.61-4.296-7.75-3.624-18.576-1.867-27.019 3.102-8.848 9.148-15.143 17.375-19.434 16.365-7.804 36.996-7.107 52.313 2.563ZM875 2362h26l.044 6.65c.05 7.277.117 14.553.192 21.829.044 4.409.084 8.817.11 13.226.027 4.26.067 8.52.117 12.78.017 1.62.028 3.24.035 4.859-.12 14.014-.12 14.014 5.627 26.531 6.146 4.542 12.055 5.73 19.582 4.633 4.414-.978 7.316-2.559 10.543-5.695 3.56-5.722 4.001-11.907 4.069-18.514l.03-2.19c.03-2.36.048-4.719.065-7.078.019-1.647.038-3.295.059-4.943.05-4.313.09-8.627.128-12.94.04-4.412.091-8.823.141-13.234.097-8.638.18-17.276.258-25.914h26c.068 10.223.123 20.447.155 30.67.016 4.749.037 9.497.071 14.245.033 4.59.05 9.181.059 13.772.005 1.743.016 3.486.032 5.229.143 15.91-1.355 29.476-12.442 41.834-11.15 10.458-25.18 11.838-39.652 11.563-12.576-.543-22.732-5.436-31.473-14.438-7.627-8.997-9.92-19.375-9.864-30.9v-2.367c0-2.565.008-5.13.016-7.694l.005-5.355c.003-4.685.013-9.37.024-14.056.01-4.786.015-9.572.02-14.358.01-9.382.028-18.763.049-28.145ZM1300 2362h62v23h-17v70h18v23h-63v-23h19v-70h-18l-1-1v-22ZM1171 2362h87v24h-31v92h-26v-92h-30v-24ZM606 2362h87v24h-31v92h-26v-92h-30v-24Z"/><path fill="#A8253E" d="m227 1087 2 1-55 55-2-1 1.723-1.688 2.34-2.312 2.285-2.25a154.296 154.296 0 0 0 5.902-6.496c4.03-4.643 8.331-8.982 12.688-13.316l2.302-2.315c4.157-4.15 8.406-8.11 12.856-11.942 3.102-2.739 6-5.671 8.904-8.619l1.77-1.783c1.412-1.424 2.821-2.851 4.23-4.279Z"/><path fill="#A6243D" d="M1177 651c1.437-.054 2.875-.093 4.313-.125l2.425-.07C1186 651 1186 651 1189 653l-7 1v-2h-5v-1Z"/></svg>